<svg width="220" height="49" viewBox="0 0 220 49" fill="none" xmlns="http://www.w3.org/2000/svg">
<path fill-rule="evenodd" clip-rule="evenodd" d="M45.3716 22.9761L63.9882 0.444707C64.1157 0.271338 64.2918 0.139693 64.4942 0.0664303C64.6965 -0.00683218 64.9161 -0.0184189 65.125 0.0331364C65.334 0.0846917 65.5229 0.197072 65.668 0.356055C65.8131 0.515039 65.9077 0.713481 65.9399 0.926269L69.291 17.7923H84.8115C85.0923 17.7928 85.362 17.9018 85.5642 18.0967C85.7664 18.2915 85.8855 18.557 85.8964 18.8375L86.8369 41.4171L101.363 9.69069C101.455 9.49393 101.604 9.32916 101.79 9.21759C101.976 9.10602 102.192 9.05276 102.408 9.06466L220 10.1694L103.029 11.243L86.9134 46.261C86.8084 46.4797 86.6331 46.6568 86.4157 46.7642C86.1982 46.8715 85.951 46.9029 85.7136 46.8534C85.4762 46.8038 85.2623 46.6761 85.1059 46.4907C84.9496 46.3053 84.8599 46.0728 84.8512 45.8305L83.7719 19.9649H68.4327C68.1584 19.9843 67.887 19.8993 67.6726 19.727C67.4583 19.5548 67.317 19.3079 67.277 19.0358L64.1808 3.86096L46.8219 24.6673C46.7224 24.8146 46.5882 24.9353 46.4311 25.0188C46.2741 25.1022 46.099 25.1459 45.9211 25.146L0 24.078L45.3716 22.9761Z" fill="#56C5D0"/>
<path fill-rule="evenodd" clip-rule="evenodd" d="M7.56312 35.287C7.55914 34.3914 7.73426 33.504 8.07819 32.677C8.42212 31.85 8.92792 31.1001 9.56585 30.4714C10.1932 29.8532 10.9325 29.36 11.7442 29.0182C12.5862 28.6611 13.4924 28.4799 14.407 28.4857C15.0174 28.4896 15.6225 28.6008 16.1944 28.8143C16.7575 29.0028 17.2509 29.3561 17.6108 29.8284V28.8398H21.2366V41.8703H17.5994V40.6211C17.4711 40.9149 17.2773 41.1755 17.0329 41.3831C16.794 41.5852 16.5244 41.7478 16.2341 41.8646C15.9365 41.9832 15.6254 42.064 15.3078 42.1054C15.0054 42.1462 14.7007 42.167 14.3956 42.1677C13.4799 42.1738 12.5729 41.9886 11.7329 41.6238C10.9196 41.2709 10.1805 40.7672 9.55452 40.1395C8.91702 39.5028 8.41184 38.7463 8.06811 37.9135C7.72438 37.0806 7.5489 36.188 7.55179 35.287H7.56312ZM14.407 32.1286C13.9933 32.1272 13.5837 32.2101 13.2031 32.3722C12.8325 32.525 12.4927 32.7438 12.2003 33.018C11.9126 33.2897 11.6765 33.6112 11.5034 33.967C11.1483 34.8367 11.1483 35.811 11.5034 36.6807C11.6765 37.0365 11.9126 37.358 12.2003 37.6297C12.8019 38.1818 13.5904 38.4854 14.407 38.4795C14.8203 38.4804 15.2297 38.3986 15.6109 38.2387C15.9822 38.0826 16.3213 37.8588 16.6108 37.5787C16.8969 37.3028 17.1294 36.9763 17.2963 36.6156C17.4688 36.2447 17.5715 35.8453 17.5994 35.4372V35.1539C17.5691 34.7517 17.4664 34.3582 17.2963 33.9925C17.1286 33.6322 16.8963 33.3058 16.6108 33.0294C16.3219 32.7492 15.9826 32.5263 15.6109 32.3722C15.2303 32.2101 14.8206 32.1272 14.407 32.1286ZM30.7432 32.1286C29.7429 32.1021 28.7638 32.4201 27.97 33.0294C27.6339 33.2815 27.3565 33.6035 27.157 33.9732C26.9574 34.3429 26.8405 34.7516 26.8143 35.1709V41.8646H23.1912V28.8086H26.8143V29.7972C27.1826 29.3213 27.6862 28.9678 28.2589 28.7831C29.0637 28.5394 29.9028 28.4284 30.7432 28.4545V32.1371V32.1286ZM49.1106 41.8646V35.2729C49.1122 34.8694 49.0781 34.4665 49.0086 34.069C48.9508 33.7152 48.8258 33.3758 48.6403 33.069C48.4666 32.7839 48.2228 32.5479 47.9321 32.3835C47.5936 32.2034 47.2135 32.1155 46.8302 32.1286C46.4601 32.1162 46.0931 32.2001 45.7651 32.3722C45.4803 32.5279 45.2403 32.7542 45.0683 33.0294C44.8815 33.3299 44.7483 33.6606 44.6745 34.0067C44.5865 34.3467 44.5352 34.6953 44.5216 35.0463V41.8646H40.8957V35.2729C40.8982 34.8694 40.865 34.4666 40.7965 34.069C40.7388 33.7152 40.6138 33.3758 40.4283 33.069C40.2536 32.7837 40.0088 32.5477 39.7173 32.3835C39.3788 32.203 38.9987 32.115 38.6154 32.1286C38.2453 32.1168 37.8784 32.2007 37.5502 32.3722C37.2666 32.5295 37.027 32.7554 36.8534 33.0294C36.6698 33.3264 36.5367 33.6519 36.4597 33.9925C36.3741 34.38 36.3238 34.7744 36.3095 35.1709V41.8646H32.6836V28.8341H36.3095V29.8142C36.4915 29.5905 36.7098 29.399 36.9554 29.2477C37.2106 29.0853 37.4776 28.9424 37.7542 28.82C38.0101 28.7061 38.2781 28.6215 38.553 28.5678C38.7655 28.5223 38.9817 28.4967 39.1989 28.4914C39.4822 28.4914 39.7909 28.4914 40.162 28.5169C40.5477 28.5375 40.9288 28.6099 41.2951 28.7321C41.7111 28.874 42.1036 29.0774 42.4593 29.3355C42.8818 29.6507 43.2356 30.0488 43.4989 30.5054L43.5244 30.5309C43.8166 30.0595 44.1896 29.6433 44.6264 29.3015C44.9639 29.0472 45.3359 28.8421 45.7311 28.6925C46.0437 28.5759 46.3724 28.508 46.7056 28.4914C47.003 28.4914 47.2353 28.4772 47.4024 28.4772C47.6857 28.4772 47.9945 28.4772 48.3656 28.5027C49.1997 28.543 50.0032 28.8299 50.6742 29.327C51.0967 29.6456 51.4504 30.0465 51.7138 30.5054C52.0538 31.106 52.3011 31.7544 52.4475 32.4288C52.6524 33.3693 52.7474 34.3303 52.7308 35.2927V41.8759L49.1106 41.8646ZM54.5975 35.287C54.5915 34.3743 54.7727 33.4699 55.1301 32.63C55.475 31.82 55.9744 31.0849 56.6003 30.4658C57.2291 29.8481 57.9692 29.355 58.7814 29.0126C59.6233 28.6549 60.5295 28.4737 61.4442 28.48C62.0537 28.484 62.6578 28.5952 63.2288 28.8086C63.7916 28.9976 64.285 29.3508 64.6452 29.8227V28.8341H68.2682V41.8646H64.6423V40.6211C64.5137 40.9147 64.32 41.1753 64.0758 41.3831C63.8378 41.5864 63.5679 41.7491 63.277 41.8646C62.9805 41.9835 62.6702 42.0644 62.3535 42.1054C62.0511 42.1461 61.7464 42.1669 61.4414 42.1677C60.5255 42.1744 59.6185 41.9892 58.7786 41.6238C57.965 41.2701 57.2251 40.7665 56.5974 40.1395C55.9704 39.5126 55.4711 38.7699 55.1272 37.9526C54.771 37.1094 54.5898 36.2025 54.5947 35.287H54.5975ZM61.4442 32.1286C61.0296 32.1272 60.6191 32.2101 60.2375 32.3722C59.4944 32.6771 58.8894 33.2448 58.5378 33.967C58.1827 34.8367 58.1827 35.811 58.5378 36.6807C58.7109 37.0365 58.947 37.358 59.2347 37.6297C59.5246 37.9029 59.864 38.1182 60.2346 38.2642C60.6184 38.4177 61.0281 38.4956 61.4414 38.4937C61.8547 38.4941 62.2639 38.4122 62.6453 38.2529C63.0166 38.0967 63.3557 37.8729 63.6452 37.5929C63.9313 37.317 64.1638 36.9904 64.3307 36.6298C64.5006 36.2579 64.6032 35.859 64.6338 35.4513V35.1681C64.6029 34.7605 64.5003 34.3616 64.3307 33.9897C64.163 33.6294 63.9307 33.303 63.6452 33.0265C63.3563 32.7464 63.017 32.5234 62.6453 32.3693C62.2646 32.2076 61.855 32.1247 61.4414 32.1257L61.4442 32.1286ZM73.1915 41.8646V32.4345H70.2511V28.8086H73.1915V24.2451H76.8173V28.8086H79.8597V32.4345H76.8173V41.8646H73.1915Z" fill="#0A5667"/>
<path fill-rule="evenodd" clip-rule="evenodd" d="M97.4005 35.2871C97.3965 34.3915 97.5716 33.5041 97.9155 32.6771C98.2595 31.8501 98.7653 31.1002 99.4032 30.4715C100.032 29.8532 100.772 29.36 101.584 29.0183C102.425 28.661 103.331 28.4797 104.244 28.4858C104.855 28.4897 105.46 28.6009 106.032 28.8144C106.595 29.0033 107.088 29.3566 107.448 29.8285V28.8399H111.074V41.8704H107.448V40.6211C107.318 40.9142 107.125 41.1746 106.882 41.3831C106.643 41.5853 106.373 41.7479 106.083 41.8647C105.785 41.9839 105.474 42.0648 105.156 42.1055C104.854 42.1463 104.549 42.1672 104.244 42.1678C103.329 42.1742 102.423 41.9889 101.584 41.6239C100.77 41.271 100.03 40.7674 99.4032 40.1396C98.7657 39.5029 98.2605 38.7464 97.9168 37.9136C97.573 37.0807 97.3976 36.1881 97.4005 35.2871ZM104.244 32.1287C103.831 32.1273 103.421 32.2102 103.04 32.3723C102.67 32.5244 102.331 32.7434 102.04 33.0181C101.751 33.2883 101.515 33.6101 101.344 33.9671C100.988 34.8368 100.988 35.8111 101.344 36.6808C101.515 37.0378 101.751 37.3596 102.04 37.6298C102.33 37.9029 102.67 38.1183 103.04 38.2643C103.423 38.4178 103.832 38.4957 104.244 38.4938C104.658 38.4947 105.067 38.4128 105.448 38.253C105.82 38.0969 106.16 37.8731 106.451 37.593C106.736 37.317 106.968 36.9904 107.134 36.6298C107.306 36.2587 107.409 35.8594 107.44 35.4514V35.1682C107.409 34.7612 107.305 34.363 107.134 33.9926C106.967 33.6325 106.736 33.306 106.451 33.0295C106.161 32.7493 105.821 32.5263 105.448 32.3723C105.068 32.2102 104.658 32.1273 104.244 32.1287ZM123.068 35.78V35.273C123.069 34.8581 122.982 34.4477 122.813 34.0691C122.649 33.6931 122.412 33.3533 122.116 33.0691C121.819 32.78 121.471 32.5477 121.09 32.3836C120.704 32.2184 120.287 32.1332 119.867 32.1332C119.446 32.1332 119.03 32.2184 118.643 32.3836C118.271 32.5377 117.932 32.7607 117.643 33.0408C117.356 33.3184 117.12 33.6444 116.946 34.0039C116.77 34.3725 116.674 34.774 116.663 35.1823V41.876H113.026V28.8455H116.652V29.8342C117.012 29.3625 117.505 29.0093 118.068 28.82C118.64 28.6066 119.245 28.4953 119.855 28.4915C120.77 28.4854 121.676 28.6667 122.518 29.024C123.329 29.3685 124.069 29.8613 124.699 30.4772C125.324 31.0973 125.823 31.8321 126.17 32.6414C126.526 33.4815 126.706 34.3859 126.699 35.2985V41.876H123.068V35.78ZM128.555 35.2871C128.551 34.3915 128.726 33.5041 129.07 32.6771C129.414 31.8501 129.919 31.1002 130.557 30.4715C131.186 29.8532 131.926 29.36 132.739 29.0183C133.58 28.661 134.485 28.4797 135.398 28.4858C136.009 28.4894 136.614 28.6007 137.186 28.8144C137.749 29.0033 138.242 29.3566 138.602 29.8285V28.8399H142.228V41.8704H138.602V40.6211C138.474 40.9148 138.28 41.1754 138.036 41.3831C137.798 41.5865 137.528 41.7492 137.237 41.8647C136.94 41.9835 136.63 42.0645 136.313 42.1055C136.01 42.1462 135.705 42.1671 135.398 42.1678C134.484 42.1742 133.578 41.9889 132.739 41.6239C131.924 41.271 131.184 40.7674 130.557 40.1396C129.92 39.5029 129.415 38.7464 129.071 37.9136C128.727 37.0807 128.552 36.1881 128.555 35.2871ZM135.404 32.1287C134.991 32.1276 134.581 32.2105 134.2 32.3723C133.83 32.5244 133.491 32.7434 133.2 33.0181C132.911 33.2883 132.675 33.6101 132.503 33.9671C132.148 34.8368 132.148 35.8111 132.503 36.6808C132.675 37.0378 132.911 37.3596 133.2 37.6298C133.49 37.9029 133.83 38.1183 134.2 38.2643C134.583 38.4176 134.992 38.4955 135.404 38.4938C135.818 38.4945 136.229 38.4127 136.611 38.253C137.355 37.9403 137.956 37.3616 138.296 36.6298C138.466 36.258 138.569 35.8591 138.599 35.4514V35.1682C138.569 34.7606 138.466 34.3617 138.296 33.9898C138.128 33.6301 137.895 33.3038 137.611 33.0266C137.322 32.7465 136.983 32.5235 136.611 32.3694C136.229 32.2074 135.819 32.1245 135.404 32.1258V32.1287ZM147.814 41.8647H144.186V24.2452H147.811V41.8647H147.814ZM156.573 37.4287L160.615 28.8087H163.403V31.3582L158.383 41.8534L157.091 44.9212C156.763 45.6316 156.307 46.2758 155.746 46.822C155.211 47.3474 154.595 47.7835 153.922 48.1137L152.655 44.6663C152.938 44.5012 153.201 44.3055 153.44 44.0827C153.677 43.8691 153.869 43.6112 154.007 43.3236L154.766 41.8534L149.746 31.3723V28.8229H152.536L156.567 37.4428L156.573 37.4287ZM168.323 41.8647V32.4346H165.374V28.8087H168.317V24.2452H171.946V28.8087H174.989V32.4346H171.946V41.8647H168.323ZM180.577 41.8647H176.949V28.8087H180.572V41.8647H180.577ZM176.872 26.1233C176.865 25.8736 176.91 25.6251 177.003 25.3935C177.097 25.1619 177.237 24.9523 177.416 24.7778C177.595 24.6025 177.807 24.4651 178.04 24.3736C178.274 24.2821 178.523 24.2384 178.773 24.2452C179.022 24.2377 179.269 24.2812 179.5 24.373C179.731 24.4648 179.941 24.6029 180.117 24.7788C180.292 24.9548 180.43 25.1648 180.522 25.3961C180.613 25.6273 180.656 25.8748 180.648 26.1233C180.656 26.3733 180.612 26.6221 180.521 26.8549C180.429 27.0876 180.291 27.2994 180.116 27.4773C179.942 27.6571 179.733 27.7985 179.502 27.8927C179.271 27.9868 179.023 28.0316 178.773 28.0241C178.522 28.0291 178.273 27.9833 178.04 27.8896C177.807 27.7958 177.595 27.656 177.418 27.4785C177.24 27.301 177.101 27.0894 177.007 26.8566C176.913 26.6237 176.867 26.3743 176.872 26.1233ZM189.382 32.4856C188.953 32.475 188.528 32.5528 188.131 32.7141C187.734 32.8755 187.375 33.1168 187.076 33.4232C186.799 33.7041 186.564 34.0237 186.379 34.3722C186.228 34.649 186.146 34.9578 186.138 35.273C186.138 35.6473 186.224 36.0167 186.39 36.3522C186.571 36.7146 186.811 37.044 187.101 37.3267C187.395 37.6291 187.748 37.8682 188.138 38.0295C188.527 38.1907 188.946 38.2706 189.367 38.2643H192.107V41.8647H189.367C188.458 41.8683 187.557 41.6871 186.719 41.3322C185.068 40.6457 183.748 39.3459 183.036 37.7063C182.693 36.9669 182.508 36.1643 182.492 35.3495C182.512 34.5497 182.688 33.7615 183.011 33.0295C183.344 32.2153 183.835 31.475 184.455 30.8511C185.084 30.2256 185.824 29.7223 186.637 29.3668C187.495 28.9876 188.424 28.7945 189.362 28.8002H192.101V32.4827L189.382 32.4856ZM205.528 37.3267V37.3522C205.558 38.1361 205.424 38.9176 205.134 39.6467C204.888 40.2142 204.472 40.6919 203.945 41.0149C203.335 41.3698 202.661 41.5982 201.962 41.6862C201.047 41.8134 200.124 41.873 199.2 41.8647H195.758V38.2417H199.282C199.449 38.2417 199.681 38.2417 199.979 38.2417C200.264 38.2332 200.549 38.1991 200.829 38.1397C201.082 38.0897 201.326 37.9998 201.551 37.8734C201.647 37.823 201.727 37.7461 201.781 37.6516C201.834 37.5572 201.86 37.4493 201.854 37.3409C201.858 37.2241 201.833 37.1081 201.78 37.004C201.727 36.8999 201.648 36.8111 201.551 36.746C201.334 36.5958 201.088 36.4916 200.829 36.4401C200.549 36.3809 200.264 36.343 199.979 36.3267C199.68 36.3097 199.448 36.3012 199.282 36.3012H198.857C198.257 36.3055 197.659 36.2457 197.072 36.1228C196.557 36.0209 196.063 35.8291 195.614 35.5562C195.198 35.3017 194.847 34.9547 194.588 34.5421C194.311 34.0855 194.15 33.5682 194.118 33.0351L194.092 33.0096V32.7264C194.076 32.123 194.203 31.5243 194.461 30.9786C194.692 30.4948 195.034 30.0718 195.458 29.7435C195.909 29.409 196.422 29.1682 196.968 29.0353C197.584 28.8783 198.218 28.8012 198.854 28.8059H202.353V32.4318H198.826C198.558 32.4172 198.29 32.4343 198.027 32.4827C197.981 32.499 197.942 32.5303 197.917 32.5714C197.891 32.6126 197.88 32.6612 197.885 32.7094C197.885 32.7506 197.896 32.7911 197.916 32.8269C197.937 32.8627 197.966 32.8925 198.001 32.9133C198.269 32.9885 198.549 33.0144 198.826 32.9898H199.18C200.102 32.9828 201.025 33.0291 201.942 33.1286C202.636 33.1931 203.31 33.3953 203.925 33.7235C204.45 34.0208 204.867 34.4784 205.114 35.0294C205.406 35.7481 205.54 36.5207 205.508 37.2955L205.528 37.3267Z" fill="#0A5667"/>
</svg>
