<svg width="840" height="1261" viewBox="0 0 840 1261" fill="none" xmlns="http://www.w3.org/2000/svg">
<path opacity="0.03" d="M629.504 141.111C634.269 190.594 643.03 232.917 661.38 276.04C679.728 319.159 707.653 363.055 750.717 415.699L751.104 415.382L750.717 415.699C751.933 417.185 753.423 418.979 755.105 421.004C759.389 426.162 764.921 432.823 770.366 439.74C777.956 449.38 785.337 459.469 788.918 466.634C796.788 482.385 797.046 492.66 797.353 504.813C797.416 507.337 797.482 509.942 797.618 512.693C798.412 528.722 801.613 549.525 820.764 587.856C839.842 626.041 844.576 662.586 831.854 698.326C819.125 734.086 788.894 769.12 737.872 804.211C688.088 838.449 670.826 870.425 652.644 904.106C652.138 905.043 651.632 905.981 651.124 906.921C632.381 941.593 611.669 978.221 552.71 1021.26C523.214 1042.79 501.515 1054.14 483.77 1060.66C467.95 1066.47 455.259 1068.45 442.933 1070.37C441.433 1070.6 439.938 1070.84 438.443 1071.08C424.663 1073.28 410.946 1075.99 393.479 1084.55C376.022 1093.11 354.84 1107.51 326.095 1133.07C314.815 1143.09 303.851 1153.17 293.129 1163.03C276.52 1178.3 260.49 1193.04 244.763 1206.23C218.891 1227.91 193.915 1245.32 168.677 1253.88C143.465 1262.43 117.982 1262.14 91.0507 1248.41C64.095 1234.67 35.6518 1207.44 4.59052 1162.03C-26.5213 1116.54 -53.6809 1092.16 -78.3887 1078.46C-103.099 1064.77 -125.316 1061.78 -146.454 1059L-146.837 1058.95C-167.84 1056.18 -187.757 1053.56 -208.162 1040.85C-228.691 1028.06 -249.765 1005.03 -272.852 961.212C-295.983 917.312 -317.548 892.133 -337.406 876.881C-357.27 861.624 -375.392 856.329 -391.561 852.144C-392.667 851.858 -393.763 851.577 -394.85 851.299C-409.667 847.502 -422.695 844.163 -433.967 834.18C-446.06 823.471 -456.188 805.054 -464.137 770.004C-478.694 705.819 -480.583 671.677 -482.316 640.369C-482.477 637.465 -482.636 634.586 -482.804 631.709C-484.786 597.776 -487.968 564.238 -508.684 495.612C-518.993 461.463 -513.22 435.096 -497.991 412.733C-482.737 390.333 -457.98 371.922 -430.255 353.763C-422.825 348.897 -415.181 344.048 -407.454 339.147C-386.379 325.778 -364.682 312.015 -344.996 296.417C-318.082 275.09 -294.866 250.287 -282.043 218.264C-256.478 154.418 -233.347 97.8569 -204.672 62.0205C-190.343 44.1126 -174.659 31.4202 -156.634 25.5692C-138.619 19.7211 -118.203 20.6873 -94.3637 30.2132C1.3717 68.4681 170.608 116.31 343.131 33.1768C429.193 -8.29389 498.415 -5.90035 547.282 19.1126C596.159 44.1304 624.757 91.817 629.504 141.111Z" fill="#51B5FF" stroke="black"/>
</svg>
